<svg xmlns="http://www.w3.org/2000/svg" width="1200" height="620" viewBox="0 0 1200 620" role="img"
     aria-labelledby="title desc">
  <title id="title">ReMe Memory Tags Workflow</title>
  <desc id="desc">Markdown memories use the memory_tags frontmatter field to build a rebuildable bidirectional tag index. Search first narrows the file scope by tag, then applies keyword or semantic retrieval.</desc>
  <defs>
    <style>
      .bg{fill:#fffdf8}.title{font:800 30px Arial,"PingFang SC",sans-serif;fill:#1f2430}
      .sub{font:15px Arial,"PingFang SC",sans-serif;fill:#667085}.panel{fill:#fff;stroke:#1f2430;stroke-width:2}
      .head{font:700 18px Arial,"PingFang SC",sans-serif;fill:#1f2430}.text{font:14px Arial,"PingFang SC",sans-serif;fill:#5e6a7c}
      .tiny{font:12px Arial,"PingFang SC",sans-serif;fill:#667085}.mono{font:700 14px ui-monospace,SFMono-Regular,Menlo,monospace;fill:#1f2430}
      .orange{fill:#fff2e5}.blue{fill:#eef7ff}.green{fill:#effaf5}.purple{fill:#f5f1ff}
      .chip{stroke:#1f2430;stroke-width:1.4}.arrow{fill:none;stroke:#7f8b9d;stroke-width:2.2;marker-end:url(#arrow)}
      .dash{fill:none;stroke:#ff963d;stroke-width:2;stroke-dasharray:7 6;marker-end:url(#orange-arrow)}
    </style>
    <marker id="arrow" markerWidth="8" markerHeight="8" refX="7" refY="4" orient="auto">
      <path d="M0 0v8l8-4z" fill="#7f8b9d"/>
    </marker>
    <marker id="orange-arrow" markerWidth="8" markerHeight="8" refX="7" refY="4" orient="auto">
      <path d="M0 0v8l8-4z" fill="#ff963d"/>
    </marker>
  </defs>

  <rect class="bg" width="1200" height="620"/>
  <text class="title" x="600" y="48" text-anchor="middle">From Markdown Tags to More Precise Memory Recall</text>
  <text class="sub" x="600" y="76" text-anchor="middle">Files remain the source of truth; the tag index is a rebuildable map of memory cues</text>

  <rect class="panel" x="40" y="120" width="270" height="350" rx="18"/>
  <text class="head" x="175" y="158" text-anchor="middle">1. A Readable Memory</text>
  <path d="M92 195h130l34 34v170H92z" fill="#fff7e8" stroke="#1f2430" stroke-width="2"/>
  <path d="M222 195v34h34" fill="none" stroke="#1f2430" stroke-width="2"/>
  <text class="mono" x="112" y="255">---</text>
  <text class="mono" x="112" y="282">memory_tags:</text>
  <text class="mono" x="112" y="309">  - Alice</text>
  <text class="mono" x="112" y="336">  - Project_A</text>
  <text class="mono" x="112" y="363">---</text>
  <text class="tiny" x="175" y="432" text-anchor="middle">The body stays plain Markdown</text>

  <path class="arrow" d="M310 295h70"/>

  <rect class="panel" x="380" y="120" width="390" height="350" rx="18"/>
  <text class="head" x="575" y="158" text-anchor="middle">2. Build a Bidirectional Tag Index</text>
  <rect class="chip blue" x="420" y="195" width="140" height="70" rx="12"/>
  <text class="head" x="490" y="226" text-anchor="middle">Alice</text>
  <text class="tiny" x="490" y="247" text-anchor="middle">tag → files</text>
  <rect class="chip green" x="590" y="195" width="140" height="70" rx="12"/>
  <text class="head" x="660" y="226" text-anchor="middle">Project_A</text>
  <text class="tiny" x="660" y="247" text-anchor="middle">tag → files</text>
  <rect class="chip purple" x="455" y="320" width="240" height="78" rx="12"/>
  <text class="mono" x="575" y="352" text-anchor="middle">daily/decision.md</text>
  <text class="tiny" x="575" y="376" text-anchor="middle">file → tags</text>
  <path class="dash" d="M490 265v42h85"/>
  <path class="dash" d="M660 265v42h-85"/>
  <text class="tiny" x="575" y="439" text-anchor="middle">Updated on create, edit, and delete</text>

  <path class="arrow" d="M770 295h70"/>

  <rect class="panel" x="840" y="120" width="320" height="350" rx="18"/>
  <text class="head" x="1000" y="158" text-anchor="middle">3. Search with a Memory Cue</text>
  <rect class="chip orange" x="875" y="190" width="250" height="88" rx="12"/>
  <text class="tiny" x="1000" y="214" text-anchor="middle">query</text>
  <text class="text" x="1000" y="237" text-anchor="middle">What must we check before launch?</text>
  <text class="mono" x="1000" y="260" text-anchor="middle">tags: [Project_A]</text>
  <path class="arrow" d="M1000 278v37"/>
  <rect class="chip blue" x="875" y="315" width="250" height="88" rx="12"/>
  <text class="head" x="1000" y="345" text-anchor="middle">Narrow Direct</text>
  <text class="head" x="1000" y="367" text-anchor="middle">Search Scope</text>
  <text class="tiny" x="1000" y="389" text-anchor="middle">Direct hits must match the tag filter</text>
  <path class="arrow" d="M1000 403v19"/>
  <text class="text" x="1000" y="447" text-anchor="middle">BM25 + optional vector retrieval</text>

  <path class="dash" d="M1000 470v88H175v-88"/>
  <text class="text" x="600" y="590" text-anchor="middle">If the index is lost, source files remain intact—rebuild it from Markdown frontmatter</text>
</svg>
